<svg width="12" height="12" viewBox="0 0 12 12" fill="none" xmlns="http://www.w3.org/2000/svg">
<path d="M12 9.798C12 10.014 11.9519 10.236 11.8498 10.452C11.7476 10.668 11.6154 10.872 11.4412 11.064C11.1467 11.388 10.8222 11.622 10.4557 11.772C10.0951 11.922 9.70456 12 9.28393 12C8.67101 12 8.01602 11.856 7.32499 11.562C6.63395 11.268 5.94291 10.872 5.25789 10.374C4.5597 9.86406 3.90087 9.30248 3.28693 8.694C2.67928 8.08321 2.11884 7.42733 1.61042 6.732C1.11768 6.048 0.721082 5.364 0.432649 4.686C0.144216 4.002 0 3.348 0 2.724C0 2.316 0.0721081 1.926 0.216324 1.566C0.360541 1.2 0.588883 0.864 0.907361 0.564C1.29194 0.186 1.71257 0 2.15724 0C2.32549 0 2.49374 0.036 2.64397 0.108C2.8002 0.18 2.93841 0.288 3.04657 0.444L4.44066 2.406C4.54882 2.556 4.62694 2.694 4.68102 2.826C4.7351 2.952 4.76515 3.078 4.76515 3.192C4.76515 3.336 4.72308 3.48 4.63896 3.618C4.56084 3.756 4.44667 3.9 4.30245 4.044L3.84577 4.518C3.77967 4.584 3.74962 4.662 3.74962 4.758C3.74962 4.806 3.75563 4.848 3.76765 4.896C3.78568 4.944 3.80371 4.98 3.81572 5.016C3.92389 5.214 4.11017 5.472 4.37456 5.784C4.64497 6.096 4.9334 6.414 5.24587 6.732C5.57036 7.05 5.88282 7.344 6.2013 7.614C6.51377 7.878 6.77216 8.058 6.97646 8.166C7.00651 8.178 7.04256 8.196 7.08463 8.214C7.1327 8.232 7.18077 8.238 7.23485 8.238C7.33701 8.238 7.41512 8.202 7.48122 8.136L7.93791 7.686C8.08813 7.536 8.23235 7.422 8.37056 7.35C8.50876 7.266 8.64697 7.224 8.7972 7.224C8.91137 7.224 9.03155 7.248 9.16375 7.302C9.29594 7.356 9.43415 7.434 9.58438 7.536L11.5734 8.946C11.7296 9.054 11.8378 9.18 11.9039 9.33C11.9639 9.48 12 9.63 12 9.798Z" fill="#A00178"/>
</svg>
