<svg width="106" height="106" viewBox="0 0 106 106" fill="none" xmlns="http://www.w3.org/2000/svg">
<circle cx="53" cy="53" r="53" fill="#A00178"/>
<path fill-rule="evenodd" clip-rule="evenodd" d="M37.7872 34.7546L37.7751 34.7919C36.9084 37.4495 34.4229 39.2488 31.6184 39.2488H31.5791L31.6109 39.2718C33.8798 40.9143 34.8292 43.8257 33.9625 46.4833L33.9504 46.5205L33.9822 46.4975C36.2511 44.855 39.3234 44.855 41.5923 46.4975L41.6241 46.5205L41.6119 46.4833C40.7453 43.8257 41.6947 40.9143 43.9636 39.2718L43.9954 39.2488H43.9561C41.1515 39.2488 38.666 37.4495 37.7994 34.7919L37.7872 34.7546ZM40.2499 29.7828C39.4747 27.4057 36.0997 27.4057 35.3245 29.7828L34.0811 33.596C33.7344 34.659 32.7402 35.3787 31.6184 35.3787H27.5944C25.086 35.3787 24.043 38.577 26.0724 40.0461L29.3278 42.4028C30.2354 43.0598 30.6152 44.2243 30.2685 45.2874L29.025 49.1006C28.2499 51.4776 30.9804 53.4542 33.0097 51.9851L36.2652 49.6285C37.1728 48.9715 38.4017 48.9715 39.3092 49.6285L42.5647 51.9851C44.5941 53.4542 47.3246 51.4776 46.5494 49.1006L45.3059 45.2874C44.9593 44.2243 45.339 43.0598 46.2466 42.4028L49.5021 40.0461C51.5314 38.577 50.4885 35.3787 47.9801 35.3787H43.9561C42.8343 35.3787 41.84 34.659 41.4934 33.596L40.2499 29.7828Z" fill="white"/>
<path fill-rule="evenodd" clip-rule="evenodd" d="M68.2128 34.7546L68.2006 34.7919C67.334 37.4495 64.8484 39.2488 62.0439 39.2488H62.0046L62.0364 39.2718C64.3053 40.9143 65.2547 43.8257 64.3881 46.4833L64.3759 46.5205L64.4077 46.4975C66.6766 44.855 69.7489 44.855 72.0178 46.4975L72.0496 46.5205L72.0375 46.4833C71.1708 43.8257 72.1202 40.9143 74.3891 39.2718L74.4209 39.2488H74.3816C71.5771 39.2488 69.0916 37.4495 68.2249 34.7919L68.2128 34.7546ZM70.6755 29.7828C69.9003 27.4057 66.5253 27.4057 65.7501 29.7828L64.5066 33.596C64.16 34.659 63.1657 35.3787 62.0439 35.3787H58.0199C55.5115 35.3787 54.4686 38.577 56.4979 40.0461L59.7534 42.4028C60.661 43.0598 61.0407 44.2243 60.6941 45.2874L59.4506 49.1006C58.6754 51.4776 61.4059 53.4542 63.4353 51.9851L66.6908 49.6285C67.5983 48.9715 68.8272 48.9715 69.7348 49.6285L72.9903 51.9851C75.0196 53.4542 77.7501 51.4776 76.975 49.1006L75.7315 45.2874C75.3848 44.2243 75.7646 43.0598 76.6722 42.4028L79.9276 40.0461C81.957 38.577 80.914 35.3787 78.4056 35.3787H74.3816C73.2598 35.3787 72.2656 34.659 71.9189 33.596L70.6755 29.7828Z" fill="white"/>
<path fill-rule="evenodd" clip-rule="evenodd" d="M53.3237 59.265L53.3115 59.3023C52.4449 61.9599 49.9593 63.7592 47.1548 63.7592H47.1155L47.1473 63.7822C49.4162 65.4247 50.3656 68.3361 49.499 70.9937L49.4868 71.0309L49.5186 71.0079C51.7875 69.3654 54.8598 69.3654 57.1287 71.0079L57.1605 71.0309L57.1484 70.9937C56.2817 68.3361 57.2311 65.4247 59.5 63.7822L59.5318 63.7592H59.4925C56.688 63.7592 54.2025 61.9599 53.3358 59.3023L53.3237 59.265ZM55.7864 54.2932C55.0112 51.9162 51.6361 51.9162 50.861 54.2932L49.6175 58.1064C49.2709 59.1694 48.2766 59.8892 47.1548 59.8892H43.1308C40.6224 59.8892 39.5795 63.0874 41.6088 64.5565L44.8643 66.9132C45.7719 67.5702 46.1516 68.7347 45.805 69.7978L44.5615 73.611C43.7863 75.988 46.5168 77.9646 48.5462 76.4956L51.8017 74.1389C52.7092 73.4819 53.9381 73.4819 54.8457 74.1389L58.1012 76.4956C60.1305 77.9646 62.861 75.988 62.0859 73.611L60.8424 69.7978C60.4957 68.7347 60.8755 67.5702 61.783 66.9132L65.0385 64.5565C67.0679 63.0874 66.0249 59.8892 63.5165 59.8892H59.4925C58.3707 59.8892 57.3765 59.1694 57.0298 58.1064L55.7864 54.2932Z" fill="white"/>
</svg>
