<svg width="106" height="106" viewBox="0 0 106 106" fill="none" xmlns="http://www.w3.org/2000/svg">
<circle cx="53" cy="53" r="53" fill="#A00178"/>
<path d="M54.5836 56.5903H44.8182V53.4076H54.4762C55.2042 53.4076 55.8009 53.2975 56.2663 53.0774C56.7318 52.8573 57.0749 52.5454 57.2957 52.1419C57.5165 51.7383 57.6269 51.2613 57.6269 50.711C57.6269 50.1729 57.5165 49.6868 57.2957 49.2527C57.0749 48.8185 56.7377 48.473 56.2842 48.2162C55.8307 47.9594 55.2638 47.831 54.5836 47.831H51.2717V63.3868H47.4229V44.6024H54.5836C56.0336 44.6024 57.2748 44.8684 58.3071 45.4004C59.3454 45.9263 60.1391 46.6478 60.688 47.565C61.237 48.4761 61.5085 49.5095 61.5026 50.6652C61.5085 51.8759 61.2311 52.9245 60.6702 53.8112C60.1092 54.6978 59.3096 55.3826 58.2713 55.8657C57.233 56.3488 56.0038 56.5903 54.5836 56.5903ZM55.2728 57.801V60.9837H44.8182V57.801H55.2728Z" fill="white"/>
<path fill-rule="evenodd" clip-rule="evenodd" d="M23.5639 41.9329C24.3157 41.1741 25.5346 41.1741 26.2864 41.9329L30.4347 46.1202C30.9359 46.6261 31.7486 46.6261 32.2498 46.1202L36.3981 41.9329C37.1499 41.1741 38.3688 41.1741 39.1206 41.9329C39.8724 42.6918 39.8724 43.9222 39.1206 44.681L34.9723 48.8683C32.9675 50.8919 29.717 50.892 27.7122 48.8683L23.5639 44.681C22.812 43.9222 22.812 42.6918 23.5639 41.9329Z" fill="white"/>
<path fill-rule="evenodd" clip-rule="evenodd" d="M29.4171 36.1819C29.4171 33.32 31.7155 31 34.5508 31H72.0909C74.9262 31 77.2246 33.32 77.2246 36.1819V48.165C77.2246 49.2382 76.3627 50.1082 75.2995 50.1082C74.2362 50.1082 73.3743 49.2382 73.3743 48.165V36.1819C73.3743 35.4664 72.7997 34.8864 72.0909 34.8864H34.5508C33.842 34.8864 33.2674 35.4664 33.2674 36.1819V48.165C33.2674 49.2382 32.4055 50.1082 31.3422 50.1082C30.279 50.1082 29.4171 49.2382 29.4171 48.165V36.1819Z" fill="white"/>
<path fill-rule="evenodd" clip-rule="evenodd" d="M82.4361 64.0671C81.6843 64.8259 80.4654 64.8259 79.7136 64.0671L75.5653 59.8798C75.0641 59.3739 74.2514 59.3739 73.7502 59.8798L69.6019 64.0671C68.8501 64.8259 67.6312 64.8259 66.8794 64.0671C66.1276 63.3082 66.1276 62.0778 66.8794 61.319L71.0277 57.1317C73.0325 55.1081 76.283 55.108 78.2878 57.1317L82.4361 61.319C83.188 62.0778 83.188 63.3082 82.4361 64.0671Z" fill="white"/>
<path fill-rule="evenodd" clip-rule="evenodd" d="M76.5829 69.8181C76.5829 72.68 74.2845 75 71.4492 75H33.9091C31.0738 75 28.7754 72.68 28.7754 69.8181V57.835C28.7754 56.7618 29.6373 55.8918 30.7005 55.8918C31.7638 55.8918 32.6257 56.7618 32.6257 57.835V69.8181C32.6257 70.5336 33.2003 71.1136 33.9091 71.1136H71.4492C72.158 71.1136 72.7326 70.5336 72.7326 69.8181V57.835C72.7326 56.7618 73.5945 55.8918 74.6578 55.8918C75.721 55.8918 76.5829 56.7618 76.5829 57.835V69.8181Z" fill="white"/>
</svg>
