<svg width="106" height="106" viewBox="0 0 106 106" fill="none" xmlns="http://www.w3.org/2000/svg">
<circle cx="53" cy="53" r="53" fill="#A00178"/>
<path fill-rule="evenodd" clip-rule="evenodd" d="M71.8108 48.7273V77.2468H77.2973V48.7273H71.8108ZM71.027 43.974C68.8627 43.974 67.1081 45.7474 67.1081 47.9351V78.039C67.1081 80.2266 68.8627 82 71.027 82H78.0811C80.2454 82 82 80.2266 82 78.039V47.9351C82 45.7474 80.2454 43.974 78.0811 43.974H71.027Z" fill="white"/>
<path fill-rule="evenodd" clip-rule="evenodd" d="M49.8649 56.6493V77.2468H55.3514V56.6493H49.8649ZM49.0811 51.8961C46.9167 51.8961 45.1622 53.6695 45.1622 55.8571V78.039C45.1622 80.2266 46.9167 82 49.0811 82H56.1351C58.2995 82 60.0541 80.2266 60.0541 78.039V55.8571C60.0541 53.6695 58.2995 51.8961 56.1351 51.8961H49.0811Z" fill="white"/>
<path fill-rule="evenodd" clip-rule="evenodd" d="M28.7027 71.7013V77.2468H34.1892V71.7013H28.7027ZM27.9189 66.9481C25.7546 66.9481 24 68.7215 24 70.9091V78.039C24 80.2266 25.7546 82 27.9189 82H34.973C37.1373 82 38.8919 80.2266 38.8919 78.039V70.9091C38.8919 68.7215 37.1373 66.9481 34.973 66.9481H27.9189Z" fill="white"/>
<path fill-rule="evenodd" clip-rule="evenodd" d="M73.6427 23.4712C74.4568 24.4938 74.2966 25.9898 73.2849 26.8127L54.3746 42.1931L47.2216 33.9587L28.6032 48.9994C27.5888 49.8189 26.1091 49.6521 25.2984 48.6268C24.4876 47.6014 24.6527 46.1059 25.6671 45.2864L47.7929 27.4122L54.9361 35.6353L70.3367 23.1095C71.3484 22.2867 72.8286 22.4486 73.6427 23.4712Z" fill="white"/>
<path fill-rule="evenodd" clip-rule="evenodd" d="M58.4865 23.3766C58.4865 22.0641 59.5392 21 60.8378 21H74.9459V34.4675C74.9459 35.7801 73.8932 36.8442 72.5946 36.8442C71.296 36.8442 70.2432 35.7801 70.2432 34.4675V25.7532H60.8378C59.5392 25.7532 58.4865 24.6892 58.4865 23.3766Z" fill="white"/>
</svg>
