<svg width="106" height="106" viewBox="0 0 106 106" fill="none" xmlns="http://www.w3.org/2000/svg">
<circle cx="53" cy="53" r="53" fill="#A00178"/>
<path fill-rule="evenodd" clip-rule="evenodd" d="M32.3253 56.8507C36.4974 56.8507 39.8795 53.4862 39.8795 49.3358C39.8795 45.1854 36.4974 41.8209 32.3253 41.8209C28.1532 41.8209 24.7711 45.1854 24.7711 49.3358C24.7711 53.4862 28.1532 56.8507 32.3253 56.8507ZM32.3253 61.597C39.1324 61.597 44.6506 56.1075 44.6506 49.3358C44.6506 42.5642 39.1324 37.0746 32.3253 37.0746C25.5182 37.0746 20 42.5642 20 49.3358C20 56.1075 25.5182 61.597 32.3253 61.597Z" fill="white"/>
<path fill-rule="evenodd" clip-rule="evenodd" d="M62.9398 30.7463V41.8209H81.2289V30.7463H62.9398ZM62.1446 26C59.9487 26 58.1687 27.7708 58.1687 29.9552V42.6119C58.1687 44.7964 59.9487 46.5672 62.1446 46.5672H82.0241C84.2199 46.5672 86 44.7964 86 42.6119V29.9552C86 27.7708 84.2199 26 82.0241 26H62.1446Z" fill="white"/>
<path fill-rule="evenodd" clip-rule="evenodd" d="M55.7831 72.6716H27.1566C26.7175 72.6716 26.3614 73.0258 26.3614 73.4627C26.3614 73.8996 26.7175 74.2537 27.1566 74.2537H55.7831C56.2223 74.2537 56.5783 73.8996 56.5783 73.4627C56.5783 73.0258 56.2223 72.6716 55.7831 72.6716ZM27.1566 67.9254C24.0825 67.9254 21.5904 70.4045 21.5904 73.4627C21.5904 76.5209 24.0825 79 27.1566 79H55.7831C58.8573 79 61.3494 76.5209 61.3494 73.4627C61.3494 70.4045 58.8573 67.9254 55.7831 67.9254H27.1566Z" fill="white"/>
<path fill-rule="evenodd" clip-rule="evenodd" d="M71.0712 61.5509L55.1311 72.7776C54.7727 73.03 54.6879 73.5237 54.9416 73.8803C55.1954 74.2368 55.6917 74.3212 56.0501 74.0688L71.9902 62.8422C72.3486 62.5897 72.4334 62.096 72.1797 61.7395C71.9259 61.3829 71.4296 61.2985 71.0712 61.5509ZM52.3743 68.9039C49.8653 70.6709 49.2713 74.1268 51.0477 76.6228C52.824 79.1187 56.298 79.7096 58.807 77.9425L74.747 66.7159C77.256 64.9488 77.85 61.4929 76.0736 58.9969C74.2973 56.501 70.8233 55.9101 68.3143 57.6772L52.3743 68.9039Z" fill="white"/>
<path fill-rule="evenodd" clip-rule="evenodd" d="M72.0843 42.6119C73.4018 42.6119 74.4699 43.6744 74.4699 44.9851V58.8284C74.4699 60.139 73.4018 61.2015 72.0843 61.2015C70.7668 61.2015 69.6988 60.139 69.6988 58.8284V44.9851C69.6988 43.6744 70.7668 42.6119 72.0843 42.6119Z" fill="white"/>
<path fill-rule="evenodd" clip-rule="evenodd" d="M67.1145 36.0858C67.1145 34.7752 68.1825 33.7127 69.5 33.7127H74.6687C75.9862 33.7127 77.0542 34.7752 77.0542 36.0858C77.0542 37.3965 75.9862 38.459 74.6687 38.459H69.5C68.1825 38.459 67.1145 37.3965 67.1145 36.0858Z" fill="white"/>
</svg>
